<svg id="Layer_1" data-name="Layer 1" xmlns="http://www.w3.org/2000/svg" viewBox="0 0 54 44"><defs><style>.cls-1{fill:#fff;}</style></defs><title>White_55x44</title><polyline class="cls-1" points="14.39 26.75 14.39 24.67 9.62 24.67 9.62 15.04 6.97 15.04 6.97 23.01 8.4 23.01 8.4 25.4 10.61 25.4 10.61 26.74"/><path class="cls-1" d="M18.76,15,14.91,26.75H17.4l.8-2.6h4.24l.8,2.6H26L22.21,15Zm0,7.22,1.56-5.06,1.54,5.06Z"/><path class="cls-1" d="M34.08,20.66A2.41,2.41,0,0,0,36,18.15v-.06c0-2-1.33-3-3.88-3H27.5V26.75h4.82c2.7,0,4.11-1.13,4.11-3.28v-.07A2.57,2.57,0,0,0,34.08,20.66Zm-4-3.8h1.57c1.25,0,1.8.44,1.8,1.43v.07c0,1-.51,1.51-1.79,1.51H30.08Zm3.72,6.41c0,1.06-.59,1.65-1.9,1.65H30.08V21.56h1.69c1.44,0,2,.56,2,1.64Z"/><path class="cls-1" d="M42.92,19.64c-1.8-.26-2.18-.66-2.18-1.49s.59-1.33,1.75-1.33a1.7,1.7,0,0,1,1.95,1.56h2.44c-.21-2.33-1.75-3.51-4.39-3.51s-4.26,1.49-4.26,3.49c0,2.26,1.23,3.16,4.23,3.56,1.72.26,2.21.59,2.21,1.52S43.9,25,42.74,25c-1.74,0-2.18-.87-2.29-1.92H37.91c.15,2.34,1.62,3.85,4.83,3.85,2.77,0,4.47-1.65,4.47-3.74C47.21,20.77,45.75,20,42.92,19.64Z"/><polyline class="cls-1" points="6.96 25.4 4.75 25.4 4.75 26.74 6.96 26.74 6.96 29.13 8.4 29.13 8.4 26.75 6.97 26.75"/><path class="cls-1" d="M48.32,24.92a.93.93,0,1,1-.93.93A.92.92,0,0,1,48.32,24.92Z"/></svg>